<?xml version="1.0" encoding="iso-8859-1"?>
<!-- Generator: Adobe Illustrator 19.0.0, SVG Export Plug-In . SVG Version: 6.00 Build 0)  -->
<svg version="1.1" id="Layer_1" xmlns="http://www.w3.org/2000/svg" xmlns:xlink="http://www.w3.org/1999/xlink" x="0px" y="0px"
	 viewBox="0 0 507.2 507.2" style="enable-background:new 0 0 507.2 507.2;" xml:space="preserve">
<path style="fill:#AEB1B4;" d="M237.8,487.2c0,7.6,6.4,14,14,14s14-6.4,14-14s-6.4-14-14-14S237.8,479.2,237.8,487.2z"/>
<path style="fill:#F4EFEF;" d="M469.4,6h-2h-430C21,6,6.2,20.4,6.2,36.8v48c0,16.4,14.4,29.2,31.2,29.2h432
	c16.4,0,29.2-12.4,29.2-29.2v-46v-2C498.6,20.4,486.2,6,469.4,6z"/>
<path style="fill:#CDEEF9;" d="M98.6,54.4v8.4c0,7.6,9.2,15.2,16.8,15.2h216.4c7.6,0,10.8-7.2,10.8-15.2v-8.4
	c0-7.6-2.8-12.4-10.8-12.4h-8h-32h-176C107.4,42,98.6,46.8,98.6,54.4z"/>
<path style="fill:#E8E3E3;" d="M65,41.6c-2-0.8-3.6-0.8-5.6-0.8c-9.6,0-17.6,8-17.6,17.6S49.8,76,59.4,76S77,68,77,58.4
	c0-2-0.4-3.6-0.8-5.2C72.6,43.6,65.4,42,65,41.6z"/>
<g>
	<path style="fill:#61C2AB;" d="M459.4,48.4c-5.2,0-9.6,4.4-9.6,10s4.4,10,10,10c2.8,0,6-1.2,8-3.6c1.6-2,2.4-4,2-6.4
		C469,50.4,459.8,48.4,459.4,48.4z"/>
	<path style="fill:#61C2AB;" d="M419.8,48.4c-5.6,0-10,4.4-10,10s4.4,10,10,10c2.8,0,5.6-1.2,7.2-3.2c2-2,2.8-4.4,2.8-6.8
		C429.4,48.8,420.2,48.4,419.8,48.4z"/>
	<path style="fill:#61C2AB;" d="M379.8,48.4c-6,0-10.4,4.4-10.4,10s4.4,10,10,10c3.2,0,6-1.2,8-3.6c1.6-2,2.4-4,2-6.4
		C388.6,49.2,381.8,48.4,379.8,48.4z"/>
</g>
<path style="fill:#F4EFEF;" d="M469.4,150h-2h-430C21,150,6.2,164.4,6.2,180.8v48c0,16.4,14.4,29.2,31.2,29.2h432
	c16.4,0,29.2-12.4,29.2-29.2v-46v-2C498.6,164.4,486.2,150,469.4,150z"/>
<g>
	<path style="fill:#61C2AB;" d="M459.4,192.4c-5.6,0-10,4.4-10,10s4.4,10,10,10c2.8,0,5.6-1.2,7.6-3.2c1.6-2,2.8-4.4,2.4-6.8
		C469,193.2,459.8,192.4,459.4,192.4z"/>
	<path style="fill:#61C2AB;" d="M419.8,192.4c-5.6,0-10,4.4-10,10s4.4,10,10,10c2.8,0,5.6-1.2,7.6-3.2c1.6-2,2.4-4.4,2.4-6.8
		C429,192.8,420.6,192.4,419.8,192.4z"/>
	<path style="fill:#61C2AB;" d="M379.4,192.4c-5.2,0-9.6,4.4-9.6,10s4.4,10,10,10s10-4.4,10-10.4
		C390.2,194.4,379.4,192.4,379.4,192.4z"/>
</g>
<path style="fill:#F4EFEF;" d="M469.4,294h-2h-430C21,294,6.2,308.4,6.2,324.8v48c0,16.4,14.4,29.2,31.2,29.2h432
	c16.4,0,29.2-12.4,29.2-29.2v-46v-2C498.6,308.4,486.2,294,469.4,294z"/>
<path style="fill:#CDEEF9;" d="M98.6,342.4v8.4c0,8,9.2,15.2,16.8,15.2h216.4c7.6,0,10.8-7.2,10.8-15.2v-8.4
	c0-7.6-3.2-12.4-10.8-12.4h-8h-32h-176C107.8,330,98.6,335.2,98.6,342.4z"/>
<path style="fill:#E8E3E3;" d="M65,330c-2-0.8-3.6-0.8-5.6-0.8c-9.6,0-17.6,8-17.6,17.6s8,17.6,17.6,17.6s17.6-8,17.6-17.6
	c0-1.6-0.4-3.6-0.8-5.2C73.4,331.6,65,330,65,330z"/>
<g>
	<path style="fill:#61C2AB;" d="M461,336.4c-0.4,0-0.8,0-0.8,0c-6,0-10.4,4.4-10.4,10s4.4,10,10,10c2.8,0,6-1.2,7.6-3.6
		c1.6-2,2.4-4,2.4-6.4C469,338,463.8,336.4,461,336.4z"/>
	<path style="fill:#61C2AB;" d="M420.6,336.4c-0.4,0-0.8,0-0.8,0c-6,0-10.4,4.4-10.4,10s4.4,10,10,10c2.8,0,5.2-1.2,7.2-3.2
		s2.8-4.4,2.8-7.2C429.4,338,423.8,336.4,420.6,336.4z"/>
	<path style="fill:#61C2AB;" d="M380.2,336.4h-0.4c-5.6,0-10.4,4.4-10.4,10s4.4,10,10,10c2.8,0,6-1.2,8-3.6c1.6-2,2.4-4,2.4-6.4
		C389,337.6,383,336.4,380.2,336.4z"/>
</g>
<path style="fill:#CDEEF9;" d="M98.6,198.4v8.4c0,7.6,9.2,15.2,16.8,15.2h216.4c7.6,0,10.8-7.2,10.8-15.2v-8.4
	c0-7.6-2.8-12.4-10.8-12.4h-8h-32h-176C107.4,186,98.6,190.8,98.6,198.4z"/>
<path style="fill:#E8E3E3;" d="M64.6,185.6c-1.6-0.4-3.6-0.8-5.2-0.8c-9.6,0-17.6,8-17.6,17.6s8,17.6,17.6,17.6S77,212,77,202.4
	c0-2-0.4-3.6-0.8-5.2C73.4,188.8,64.6,185.6,64.6,185.6z"/>
<path d="M251.8,507.2c-11.2,0-20-8.8-20-20s8.8-20,20-20s20,8.8,20,20S262.6,507.2,251.8,507.2z M251.8,475.2c-6.8,0-12,5.2-12,12
	s5.2,12,12,12s12-5.2,12-12S258.2,475.2,251.8,475.2z"/>
<path d="M468.6,120h-432c-20,0-36-16-36-36V36c0-20,16-36,36-36h432c20,0,36,16,36,36v48C504.6,104,488.6,120,468.6,120z M36.6,8
	C21,8,8.6,20.4,8.6,36v48c0,15.6,12.4,28,28,28h432c15.6,0,28-12.4,28-28V36c0-15.6-12.4-28-28-28H36.6z"/>
<path d="M331.8,84H115.4c-11.6,0-18.8-6.4-18.8-17.2V54.4c0-10.8,7.6-18.4,18.8-18.4h175.2c2.4,0,4,1.6,4,4s-1.6,4-4,4H115.4
	c-6.8,0-10.8,4-10.8,10.4v12.4c0,6,3.6,9.2,10.8,9.2h216.4c6.4,0,8.8-2.4,8.8-9.2V54.4c0-9.2-5.2-10.4-8.8-10.4h-9.2
	c-2.4,0-4-1.6-4-4s1.6-4,4-4h9.2c10.4,0,16.8,6.8,16.8,18.4v12.4C348.6,78,342.6,84,331.8,84z"/>
<path d="M59.4,82.4c-13.2,0-23.6-10.8-23.6-23.6s10.8-23.6,23.6-23.6c2.4,0,4.8,0.4,7.2,1.2c2,0.8,3.2,2.8,2.4,5.2
	c-0.8,2-2.8,3.2-5.2,2.4c-1.6-0.4-3.2-0.8-4.8-0.8c-8.8,0-15.6,7.2-15.6,15.6S50.6,74.4,59,74.4s15.6-7.2,15.6-15.6
	c0-1.6-0.4-3.2-0.8-4.8c-0.8-2,0.4-4.4,2.8-4.8c2-0.8,4.4,0.4,4.8,2.8c0.8,2.4,1.2,4.4,1.2,6.8C83,71.6,72.6,82.4,59.4,82.4z"/>
<path d="M459.8,74.8c-8.8,0-16-7.2-16-16s7.2-16,16-16c2.4,0,4,1.6,4,4s-1.6,4-4,4c-4.4,0-8,3.6-8,8s3.6,8,8,8s8-3.6,8-8
	c0-2.4,1.6-4,4-4s4,1.6,4,4C475.8,67.6,468.6,74.8,459.8,74.8z"/>
<path d="M419.8,74.8c-8.8,0-16-7.2-16-16s7.2-16,16-16c2.4,0,4,1.6,4,4s-1.6,4-4,4c-4.4,0-8,3.6-8,8s3.6,8,8,8s8-3.6,8-8
	c0-2.4,1.6-4,4-4s4,1.6,4,4C435.8,67.6,428.6,74.8,419.8,74.8z"/>
<path d="M379.4,74.8c-8.8,0-16-7.2-16-16s7.2-16,16-16c2.4,0,4,1.6,4,4s-1.6,4-4,4c-4.4,0-8,3.6-8,8s3.6,8,8,8s8-3.6,8-8
	c0-2.4,1.6-4,4-4s4,1.6,4,4C395.8,67.6,388.6,74.8,379.4,74.8z"/>
<path d="M468.6,264h-432c-20,0-36-16-36-36v-48c0-20,16-36,36-36h432c20,0,36,16,36,36v48C504.6,248,488.6,264,468.6,264z M36.6,152
	c-15.6,0-28,12.4-28,28v48c0,15.6,12.4,28,28,28h432c15.6,0,28-12.4,28-28v-48c0-15.6-12.4-28-28-28H36.6z"/>
<path d="M331.8,228H115.4c-11.6,0-18.8-6.8-18.8-17.2v-12.4c0-10.8,7.6-18.4,18.8-18.4h175.2c2.4,0,4,1.6,4,4s-1.6,4-4,4H115.4
	c-6.8,0-10.8,4-10.8,10.4v12.4c0,7.6,6,9.2,10.8,9.2h216.4c6.4,0,8.8-2.4,8.8-9.2v-12.4c0-9.2-4.8-10.4-8.8-10.4h-9.2
	c-2.4,0-4-1.6-4-4s1.6-4,4-4h9.2c10.4,0,16.8,6.8,16.8,18.4v12.4C348.6,222,342.6,228,331.8,228z"/>
<path d="M59.4,226.4c-13.2,0-23.6-10.8-23.6-23.6s10.8-23.6,23.6-23.6c2.4,0,4.8,0.4,7.2,1.2c2,0.8,3.2,2.8,2.4,5.2
	c-0.8,2-2.8,3.2-5.2,2.4c-1.6-0.4-3.2-0.8-4.8-0.8c-8.8,0-15.6,7.2-15.6,15.6s7.2,15.6,15.6,15.6s15.6-7.2,15.6-15.6
	c0-1.6-0.4-3.2-0.8-4.8c-0.8-2,0.4-4.4,2.8-4.8c2-0.8,4.4,0.4,4.8,2.8c0.8,2.4,1.2,4.4,1.2,6.8C83,215.6,72.6,226.4,59.4,226.4z"/>
<path d="M459.8,218.8c-8.8,0-16-7.2-16-16s7.2-16,16-16c2.4,0,4,1.6,4,4s-1.6,4-4,4c-4.4,0-8,3.6-8,8s3.6,8,8,8s8-3.6,8-8
	c0-2.4,1.6-4,4-4s4,1.6,4,4C475.8,211.2,468.6,218.8,459.8,218.8z"/>
<path d="M419.8,218.8c-8.8,0-16-7.2-16-16s7.2-16,16-16c2.4,0,4,1.6,4,4s-1.6,4-4,4c-4.4,0-8,3.6-8,8s3.6,8,8,8s8-3.6,8-8
	c0-2.4,1.6-4,4-4s4,1.6,4,4C435.8,211.2,428.6,218.8,419.8,218.8z"/>
<path d="M379.4,218.8c-8.8,0-16-7.2-16-16s7.2-16,16-16c2.4,0,4,1.6,4,4s-1.6,4-4,4c-4.4,0-8,3.6-8,8s3.6,8,8,8s8-3.6,8-8
	c0-2.4,1.6-4,4-4s4,1.6,4,4C395.8,211.2,388.6,218.8,379.4,218.8z"/>
<path d="M468.6,408h-432c-20,0-36-16-36-36v-48c0-20,16-36,36-36h432c20,0,36,16,36,36v48C504.6,392,488.6,408,468.6,408z M36.6,296
	c-15.6,0-28,12.4-28,28v48c0,15.6,12.4,28,28,28h432c15.6,0,28-12.4,28-28v-48c0-15.6-12.4-28-28-28H36.6z"/>
<path d="M331.8,372H115.4c-11.6,0-18.8-6.4-18.8-17.2v-12.4c0-10.8,7.6-18.4,18.8-18.4h175.2c2.4,0,4,1.6,4,4s-1.6,4-4,4H115.4
	c-6.8,0-10.8,4-10.8,10.4v12.4c0,6,3.6,9.2,10.8,9.2h216.4c6.4,0,8.8-2.4,8.8-9.2v-12.4c0-9.6-5.2-10.4-8.8-10.4h-9.2
	c-2.4,0-4-1.6-4-4s1.6-4,4-4h9.2c10.4,0,16.8,6.8,16.8,18.4v12.4C348.6,366,342.6,372,331.8,372z"/>
<path d="M59.4,370.4c-13.2,0-23.6-10.8-23.6-23.6s10.8-23.6,23.6-23.6c2.4,0,4.8,0.4,7.2,1.2c2,0.8,3.2,2.8,2.4,5.2
	c-0.8,2-2.8,3.2-5.2,2.4c-1.6-0.4-3.2-0.8-4.8-0.8c-8.8,0-15.6,7.2-15.6,15.6c0,8.8,7.2,15.6,15.6,15.6s15.6-7.2,15.6-15.6
	c0-1.6-0.4-3.2-0.8-4.8c-0.8-2,0.4-4.4,2.8-5.2c2-0.8,4.4,0.4,4.8,2.8c0.8,2.4,1.2,4.4,1.2,6.8C83,360,72.6,370.4,59.4,370.4z"/>
<path d="M459.8,362.8c-8.8,0-16-7.2-16-16s7.2-16,16-16c2.4,0,4,1.6,4,4s-1.6,4-4,4c-4.4,0-8,3.6-8,8s3.6,8,8,8s8-3.6,8-8
	c0-2.4,1.6-4,4-4s4,1.6,4,4C475.8,355.6,468.6,362.8,459.8,362.8z"/>
<path d="M419.8,362.8c-8.8,0-16-7.2-16-16s7.2-16,16-16c2.4,0,4,1.6,4,4s-1.6,4-4,4c-4.4,0-8,3.6-8,8s3.6,8,8,8s8-3.6,8-8
	c0-2.4,1.6-4,4-4s4,1.6,4,4C435.8,355.6,428.6,362.8,419.8,362.8z"/>
<path d="M379.4,362.8c-8.8,0-16-7.2-16-16s7.2-16,16-16c2.4,0,4,1.6,4,4s-1.6,4-4,4c-4.4,0-8,3.6-8,8s3.6,8,8,8s8-3.6,8-8
	c0-2.4,1.6-4,4-4s4,1.6,4,4C395.8,355.6,388.6,362.8,379.4,362.8z"/>
<path d="M251.8,473.2c-2.4,0-4-1.6-4-4v-48c0-2.4,1.6-4,4-4s4,1.6,4,4v48C255.8,471.6,253.8,473.2,251.8,473.2z"/>
<path d="M251.8,292c-2.4,0-4-1.6-4-4v-12c0-2.4,1.6-4,4-4s4,1.6,4,4v12C255.8,290.4,253.8,292,251.8,292z"/>
<path d="M251.8,150.8c-2.4,0-4-1.6-4-4v-12c0-2.4,1.6-4,4-4s4,1.6,4,4v12C255.8,148.8,253.8,150.8,251.8,150.8z"/>
<path d="M234.6,492H6.6c-2.4,0-4-1.6-4-4s1.6-4,4-4h228c2.4,0,4,1.6,4,4S237,492,234.6,492z"/>
<path d="M502.6,492h-234c-2.4,0-4-1.6-4-4s1.6-4,4-4h234c2.4,0,4,1.6,4,4S505,492,502.6,492z"/>
<g>
</g>
<g>
</g>
<g>
</g>
<g>
</g>
<g>
</g>
<g>
</g>
<g>
</g>
<g>
</g>
<g>
</g>
<g>
</g>
<g>
</g>
<g>
</g>
<g>
</g>
<g>
</g>
<g>
</g>
</svg>
